HIERARCHY
ROOT Hips
{
	OFFSET 0.000000 0.000000 0.000000
	CHANNELS 6 Xposition Yposition Zposition Xrotation Yrotation Zrotation
	JOINT LeftUpLeg_virtual
	{
		OFFSET 0.000000 0.000000 0.000000
		CHANNELS 3 Xrotation Yrotation Zrotation
		JOINT LeftUpLeg
		{
			OFFSET 15.427100 -6.655098 0.678600
			CHANNELS 3 Xrotation Yrotation Zrotation
			JOINT LeftLeg
			{
				OFFSET 4.081073 -39.591068 13.024000
				CHANNELS 3 Xrotation Yrotation Zrotation
				JOINT LeftFoot
				{
					OFFSET -4.081074 -37.707932 -15.979700
					CHANNELS 3 Xrotation Yrotation Zrotation
					JOINT LeftToeBase
					{
						OFFSET 5.346399 -15.068900 20.645000
						CHANNELS 3 Xrotation Yrotation Zrotation
						JOINT LeftToe_End
						{
							OFFSET 2.754700 0.931300 11.300900
							CHANNELS 3 Xrotation Yrotation Zrotation
							End Site
							{
								OFFSET 0 0 0
							}
						}
					}
				}
			}
		}
	}
	JOINT RightUpLeg_virtual
	{
		OFFSET 0.000000 0.000000 0.000000
		CHANNELS 3 Xrotation Yrotation Zrotation
		JOINT RightUpLeg
		{
			OFFSET -15.569500 -6.655098 0.678600
			CHANNELS 3 Xrotation Yrotation Zrotation
			JOINT RightLeg
			{
				OFFSET -4.081825 -39.591045 13.023800
				CHANNELS 3 Xrotation Yrotation Zrotation
				JOINT RightFoot
				{
					OFFSET 4.081824 -37.707954 -15.979600
					CHANNELS 3 Xrotation Yrotation Zrotation
					JOINT RightToeBase
					{
						OFFSET -5.346400 -15.068900 20.645000
						CHANNELS 3 Xrotation Yrotation Zrotation
						JOINT RightToe_End
						{
							OFFSET -2.754700 0.931300 11.300900
							CHANNELS 3 Xrotation Yrotation Zrotation
							End Site
							{
								OFFSET 0 0 0
							}
						}
					}
				}
			}
		}
	}
	JOINT Spine_virtual
	{
		OFFSET 0.000000 0.000000 0.000000
		CHANNELS 3 Xrotation Yrotation Zrotation
		JOINT Spine
		{
			OFFSET -0.279200 12.230698 -2.892100
			CHANNELS 3 Xrotation Yrotation Zrotation
			JOINT Spine1
			{
				OFFSET -0.232667 10.192268 -1.242267
				CHANNELS 3 Xrotation Yrotation Zrotation
				JOINT Spine1_split
				{
					OFFSET -0.232667 10.192268 -1.242267
					CHANNELS 3 Xrotation Yrotation Zrotation
					JOINT Spine2
					{
						OFFSET -0.232667 10.192268 -1.242267
						CHANNELS 3 Xrotation Yrotation Zrotation
						JOINT Neck_virtual
						{
							OFFSET 0.000000 0.000000 0.000000
							CHANNELS 3 Xrotation Yrotation Zrotation
							JOINT Neck
							{
								OFFSET -0.418800 17.814194 8.416900
								CHANNELS 3 Xrotation Yrotation Zrotation
								JOINT Head
								{
									OFFSET 0.000000 7.031097 3.806800
									CHANNELS 3 Xrotation Yrotation Zrotation
									JOINT HeadTop_End
									{
										OFFSET 0.000000 24.646606 12.978600
										CHANNELS 3 Xrotation Yrotation Zrotation
										End Site
										{
											OFFSET 0 0 0
										}
									}
								}
							}
						}
						JOINT LeftShoulder_virtual
						{
							OFFSET 0.000000 0.000000 0.000000
							CHANNELS 3 Xrotation Yrotation Zrotation
							JOINT LeftShoulder
							{
								OFFSET 8.476499 7.247704 -3.868750
								CHANNELS 3 Xrotation Yrotation Zrotation
								JOINT LeftShoulder_split
								{
									OFFSET 8.476499 7.247704 -3.868750
									CHANNELS 3 Xrotation Yrotation Zrotation
									JOINT LeftArm
									{
										OFFSET 9.308998 -2.777710 0.208600
										CHANNELS 3 Xrotation Yrotation Zrotation
										JOINT LeftForeArm
										{
											OFFSET 29.972298 0.000000 0.000000
											CHANNELS 3 Xrotation Yrotation Zrotation
											JOINT LeftHand
											{
												OFFSET 26.026505 0.000000 0.000000
												CHANNELS 3 Xrotation Yrotation Zrotation
												End Site
												{
													OFFSET 0 0 0
												}
											}
										}
									}
								}
							}
						}
						JOINT RightShoulder_virtual
						{
							OFFSET 0.000000 0.000000 0.000000
							CHANNELS 3 Xrotation Yrotation Zrotation
							JOINT RightShoulder
							{
								OFFSET -7.570500 7.247704 -3.868750
								CHANNELS 3 Xrotation Yrotation Zrotation
								JOINT RightShoulder_split
								{
									OFFSET -7.570500 7.247704 -3.868750
									CHANNELS 3 Xrotation Yrotation Zrotation
									JOINT RightArm
									{
										OFFSET -9.308998 -2.777710 0.208500
										CHANNELS 3 Xrotation Yrotation Zrotation
										JOINT RightForeArm
										{
											OFFSET -29.972300 0.000000 0.000000
											CHANNELS 3 Xrotation Yrotation Zrotation
											JOINT RightHand
											{
												OFFSET -26.026505 0.000000 0.000000
												CHANNELS 3 Xrotation Yrotation Zrotation
												End Site
												{
													OFFSET 0 0 0
												}
											}
										}
									}
								}
							}
						}
					}
				}
			}
		}
	}
}
MOTION
Frames: 5
Frame Time: 0.03333333
65.024384 93.794067 159.692963 0.000000 0.000000 0.000000 -6.891798 38.783962 9.203180 -21.282690 7.247416 -13.329588 25.268090 -8.517810 -0.785672 25.730699 1.173053 13.665268 -28.214897 -0.364399 4.656467 0.000000 0.000000 0.000000 -6.666511 39.955193 8.757009 -13.880324 13.150308 1.361502 47.203250 -5.633758 -3.027103 18.040536 -5.508065 -3.482862 -51.340466 -1.618819 7.562886 0.000000 0.000000 0.000000 -6.095170 38.781117 8.436581 3.514498 -2.248182 -5.147703 -0.988664 -1.199498 1.060310 0.588604 0.663708 0.129099 0.000000 0.000000 0.000000 -1.933874 -1.090144 1.233023 -9.047582 3.268905 2.250479 7.362471 5.846355 -2.160958 0.000000 0.000000 0.000000 -2.347634 -0.902816 1.436921 1.177811 8.967817 -3.991134 1.080920 2.106607 -1.116602 8.421276 -9.408968 -67.159754 11.110892 -23.771787 4.166455 0.000000 0.000000 0.000000 -2.006640 -1.153574 1.123782 1.455077 1.942658 4.436109 0.066941 1.535946 -2.468952 0.242168 7.354381 76.723303 10.971553 15.832684 -2.496634 0.000000 0.000000 0.000000 
67.552666 94.793289 162.860306 0.000000 0.000000 0.000000 -6.027840 40.647200 7.363148 -17.440907 5.769162 -12.824158 23.882644 -8.407947 -0.275081 20.388823 4.108426 14.560893 -25.540056 0.599812 2.922481 0.000000 0.000000 0.000000 -5.997500 41.397732 6.984493 -20.792728 13.687214 2.173444 43.632611 -5.085534 -2.940300 19.545800 -4.273330 -3.800677 -41.485968 -1.341005 8.122987 0.000000 0.000000 0.000000 -5.619367 39.944749 6.991076 4.063660 -2.757791 -4.661519 -1.185188 -1.534282 1.242205 0.590885 0.814040 -0.002088 0.000000 0.000000 0.000000 -1.971211 -1.414920 1.475298 -9.088107 3.161758 2.711811 7.533090 5.899400 -2.821515 0.000000 0.000000 0.000000 -2.291623 -1.267796 1.676586 1.032022 8.013824 -3.630937 1.015118 2.566439 -1.102017 6.837517 -11.686717 -66.914960 11.358667 -24.292611 4.457937 0.000000 0.000000 0.000000 -2.127940 -1.490129 1.344375 1.126770 0.787607 5.249859 0.678965 1.769399 -2.652962 0.424731 6.383729 75.676925 10.800443 15.942917 -2.497287 0.000000 0.000000 0.000000 
70.319534 95.606560 166.015884 0.000000 0.000000 0.000000 -5.219669 42.962525 5.876476 -12.781557 5.610953 -12.272525 21.736344 -8.936660 -0.105188 14.034808 4.964551 16.063997 -24.352785 1.247620 1.682200 0.000000 0.000000 0.000000 -5.124081 43.213149 5.394609 -26.297891 12.831429 1.874465 38.056195 -3.452606 -2.768838 23.658361 -1.423939 -1.907516 -36.638996 -0.791913 6.771739 0.000000 0.000000 0.000000 -5.124777 41.533875 5.810772 4.424418 -3.129619 -4.531004 -1.335339 -1.847683 1.408851 0.827230 0.937233 -0.208597 0.000000 0.000000 0.000000 -2.033531 -1.745528 1.693526 -9.140431 2.936372 3.396581 7.343271 5.978199 -3.486963 0.000000 0.000000 0.000000 -2.292729 -1.631448 1.862642 0.894690 6.988671 -3.239075 0.886637 2.817327 -1.136130 4.947850 -13.852844 -66.962990 11.541532 -24.314005 4.803158 0.000000 0.000000 0.000000 -2.194610 -1.826073 1.529602 0.806901 -0.379182 6.143828 1.218741 2.070714 -2.697937 0.792225 5.271359 74.714101 10.726343 16.199115 -2.615577 0.000000 0.000000 0.000000 
73.217300 95.996094 169.042801 0.000000 0.000000 0.000000 -4.730081 45.914441 5.213737 -8.566229 6.755605 -11.370980 19.690640 -10.957240 -0.591877 10.372112 2.912737 17.018089 -25.891239 1.216211 1.819768 0.000000 0.000000 0.000000 -4.268281 45.835347 4.415363 -29.914907 10.919408 0.616534 30.974484 -1.487780 -2.310151 27.908710 1.989663 0.271396 -34.557533 -0.203162 4.275177 0.000000 0.000000 0.000000 -4.887257 43.754564 5.366010 4.642502 -3.470325 -4.925586 -1.396751 -2.156517 1.592180 0.828196 0.854198 -0.308952 0.000000 0.000000 0.000000 -2.147580 -2.060055 1.914346 -9.249631 2.599614 4.256515 6.851298 6.127460 -4.031330 0.000000 0.000000 0.000000 -2.353984 -1.968812 2.032996 0.751737 5.992418 -2.752200 0.767482 2.923947 -1.211441 2.872020 -15.637151 -67.292403 11.608190 -24.218994 5.169693 0.000000 0.000000 0.000000 -2.241275 -2.146230 1.715174 0.532732 -1.510961 7.020421 1.720337 2.460262 -2.598547 1.481496 4.232395 73.866174 10.799231 16.567459 -2.854547 0.000000 0.000000 0.000000 
76.018257 95.988609 171.880020 0.000000 0.000000 0.000000 -4.519309 49.201592 5.380130 -5.457426 8.718954 -10.318513 18.441087 -14.117249 -1.697398 10.133419 -0.810555 18.350743 -28.274138 0.677650 2.620532 0.000000 0.000000 0.000000 -3.391736 49.188765 4.118075 -31.717848 8.118514 -1.201936 23.920320 -0.096327 -1.712326 30.896344 4.648600 1.052394 -32.543341 0.423648 1.609134 0.000000 0.000000 0.000000 -4.966749 46.641695 5.753548 4.730323 -3.903577 -5.879767 -1.342038 -2.451593 1.838368 0.859105 0.786143 -0.371409 0.000000 0.000000 0.000000 -2.292944 -2.330885 2.157296 -9.503190 2.146791 5.195216 6.227737 6.299097 -4.328173 0.000000 0.000000 0.000000 -2.433491 -2.253438 2.249410 0.599990 5.050788 -2.117224 0.768813 2.929635 -1.294347 0.773363 -16.853830 -67.825718 11.550167 -24.383376 5.565795 0.000000 0.000000 0.000000 -2.254753 -2.434230 1.943750 0.314313 -2.514708 7.868364 2.177670 2.971365 -2.332056 2.362638 3.372757 73.139619 10.991895 16.839751 -3.146756 0.000000 0.000000 0.000000 
